M48
; DRILL file {KiCad 9.0.1-9.0.1-0~ubuntu24.04.1} date 2025-09-03T23:02:50+0300
; FORMAT={-:-/ absolute / inch / decimal}
; #@! TF.CreationDate,2025-09-03T23:02:50+03:00
; #@! TF.GenerationSoftware,Kicad,Pcbnew,9.0.1-9.0.1-0~ubuntu24.04.1
; #@! TF.FileFunction,Plated,1,2,PTH
FMAT,2
INCH
; #@! TA.AperFunction,Plated,PTH,ViaDrill
T1C0.0118
; #@! TA.AperFunction,Plated,PTH,ComponentDrill
T2C0.0394
%
G90
G05
T1
X1.1051Y-0.2252
X1.1051Y-0.3236
X1.4488Y-0.6189
X1.4488Y-1.0126
X1.5276Y-0.2252
X1.5276Y-0.3236
X1.5276Y-0.6189
X1.5276Y-0.7961
X1.5776Y-0.5098
X1.6949Y-0.5107
X1.8819Y-0.6429
X1.8819Y-1.1307
X1.9873Y-0.6407
X2.0197Y-1.1307
X2.2469Y-1.5354
X2.365Y-1.5354
X2.4758Y-1.5354
X2.6012Y-1.5354
X2.7193Y-1.5354
X2.9346Y-1.0308
X2.9358Y-1.0835
X2.9358Y-1.2402
X2.9362Y-0.9819
X2.9449Y-0.2252
X2.9449Y-0.3827
X3.0627Y-0.6386
X3.0736Y-0.8071
X3.0736Y-0.9843
X3.113Y-0.5906
X3.113Y-0.8071
X3.1524Y-0.8071
X3.1612Y-0.6211
X3.1917Y-0.8071
X3.2071Y-0.654
X3.2705Y-0.7087
X3.2705Y-1.0039
X3.7429Y-0.8071
X3.9594Y-0.8071
T2
X-0.0092Y-0.2782
X-0.0092Y-0.8294
X-0.0063Y-0.474
X-0.0063Y-1.0251
X0.4858Y-0.4724
X0.4858Y-1.0236
X0.4859Y-0.2802
X0.4859Y-0.8313
X0.601Y-0.5341
X0.601Y-1.0853
X0.6039Y-0.7299
X0.6039Y-1.281
X1.096Y-0.7283
X1.096Y-1.2795
X1.0961Y-0.5361
X1.0961Y-1.0872
X3.2742Y-0.512
X3.2742Y-1.4175
X3.3742Y-0.512
X3.7254Y-0.512
X3.8254Y-0.512
X3.8254Y-1.4175
M30
