M48
; DRILL file {KiCad 9.0.3-9.0.3-0~ubuntu22.04.1} date 2025-08-01T13:44:02+0300
; FORMAT={-:-/ absolute / metric / decimal}
; #@! TF.CreationDate,2025-08-01T13:44:02+03:00
; #@! TF.GenerationSoftware,Kicad,Pcbnew,9.0.3-9.0.3-0~ubuntu22.04.1
; #@! TF.FileFunction,Plated,1,2,PTH
FMAT,2
METRIC
; #@! TA.AperFunction,Plated,PTH,ViaDrill
T1C0.300
; #@! TA.AperFunction,Plated,PTH,ComponentDrill
T2C1.000
%
G90
G05
T1
X28.069Y-5.72
X28.069Y-8.22
X36.8Y-15.72
X36.8Y-25.72
X38.8Y-5.72
X38.8Y-8.22
X38.8Y-15.72
X38.8Y-20.22
X40.07Y-12.95
X43.05Y-12.972
X47.8Y-16.331
X47.8Y-28.72
X50.476Y-16.273
X51.3Y-28.72
X58.744Y-39.456
X60.07Y-39.5
X61.468Y-39.544
X62.885Y-39.544
X64.214Y-39.478
X74.57Y-27.52
X74.58Y-24.94
X74.8Y-5.72
X74.8Y-9.72
X77.792Y-16.222
X78.07Y-20.5
X78.07Y-25.0
X79.07Y-15.0
X79.07Y-20.5
X80.07Y-20.5
X80.295Y-15.775
X81.07Y-20.5
X81.459Y-16.611
X83.07Y-18.0
X83.07Y-23.5
X95.07Y-20.5
X100.57Y-20.5
T2
X-0.235Y-7.067
X-0.235Y-21.067
X-0.161Y-12.038
X-0.161Y-26.038
X12.339Y-12.0
X12.339Y-26.0
X12.341Y-7.116
X12.341Y-21.116
X15.265Y-13.567
X15.265Y-27.567
X15.339Y-18.538
X15.339Y-32.538
X27.839Y-18.5
X27.839Y-32.5
X27.841Y-13.616
X27.841Y-27.616
X83.165Y-12.505
X83.165Y-35.505
X85.705Y-12.505
X94.625Y-12.505
X97.165Y-12.505
X97.165Y-35.505
M30
