%TF.GenerationSoftware,KiCad,Pcbnew,8.0.9-8.0.9-0~ubuntu22.04.1*%
%TF.CreationDate,2025-03-11T21:03:11+03:00*%
%TF.ProjectId,test,74657374-2e6b-4696-9361-645f70636258,rev?*%
%TF.SameCoordinates,Original*%
%TF.FileFunction,Drillmap*%
%TF.FilePolarity,Positive*%
%FSLAX45Y45*%
G04 Gerber Fmt 4.5, Leading zero omitted, Abs format (unit mm)*
G04 Created by KiCad (PCBNEW 8.0.9-8.0.9-0~ubuntu22.04.1) date 2025-03-11 21:03:11*
%MOMM*%
%LPD*%
G01*
G04 APERTURE LIST*
%ADD10C,0.050000*%
%ADD11C,0.200000*%
%ADD12C,0.400000*%
G04 APERTURE END LIST*
D10*
X2100000Y-6550000D02*
X19600000Y-6550000D01*
X19600000Y-11550000D01*
X2100000Y-11550000D01*
X2100000Y-6550000D01*
D11*
D12*
X11081000Y-7695000D02*
X11481000Y-8095000D01*
X11481000Y-7695000D02*
X11081000Y-8095000D01*
X11081000Y-9204000D02*
X11481000Y-9604000D01*
X11481000Y-9204000D02*
X11081000Y-9604000D01*
D11*
X2358277Y-11863984D02*
X2358277Y-11663984D01*
X2358277Y-11663984D02*
X2405896Y-11663984D01*
X2405896Y-11663984D02*
X2434467Y-11673508D01*
X2434467Y-11673508D02*
X2453515Y-11692555D01*
X2453515Y-11692555D02*
X2463039Y-11711603D01*
X2463039Y-11711603D02*
X2472563Y-11749698D01*
X2472563Y-11749698D02*
X2472563Y-11778269D01*
X2472563Y-11778269D02*
X2463039Y-11816365D01*
X2463039Y-11816365D02*
X2453515Y-11835412D01*
X2453515Y-11835412D02*
X2434467Y-11854460D01*
X2434467Y-11854460D02*
X2405896Y-11863984D01*
X2405896Y-11863984D02*
X2358277Y-11863984D01*
X2558277Y-11863984D02*
X2558277Y-11730650D01*
X2558277Y-11768746D02*
X2567801Y-11749698D01*
X2567801Y-11749698D02*
X2577324Y-11740174D01*
X2577324Y-11740174D02*
X2596372Y-11730650D01*
X2596372Y-11730650D02*
X2615420Y-11730650D01*
X2682086Y-11863984D02*
X2682086Y-11730650D01*
X2682086Y-11663984D02*
X2672563Y-11673508D01*
X2672563Y-11673508D02*
X2682086Y-11683031D01*
X2682086Y-11683031D02*
X2691610Y-11673508D01*
X2691610Y-11673508D02*
X2682086Y-11663984D01*
X2682086Y-11663984D02*
X2682086Y-11683031D01*
X2805896Y-11863984D02*
X2786848Y-11854460D01*
X2786848Y-11854460D02*
X2777324Y-11835412D01*
X2777324Y-11835412D02*
X2777324Y-11663984D01*
X2910658Y-11863984D02*
X2891610Y-11854460D01*
X2891610Y-11854460D02*
X2882086Y-11835412D01*
X2882086Y-11835412D02*
X2882086Y-11663984D01*
X3139229Y-11863984D02*
X3139229Y-11663984D01*
X3139229Y-11663984D02*
X3205896Y-11806841D01*
X3205896Y-11806841D02*
X3272562Y-11663984D01*
X3272562Y-11663984D02*
X3272562Y-11863984D01*
X3453515Y-11863984D02*
X3453515Y-11759222D01*
X3453515Y-11759222D02*
X3443991Y-11740174D01*
X3443991Y-11740174D02*
X3424943Y-11730650D01*
X3424943Y-11730650D02*
X3386848Y-11730650D01*
X3386848Y-11730650D02*
X3367801Y-11740174D01*
X3453515Y-11854460D02*
X3434467Y-11863984D01*
X3434467Y-11863984D02*
X3386848Y-11863984D01*
X3386848Y-11863984D02*
X3367801Y-11854460D01*
X3367801Y-11854460D02*
X3358277Y-11835412D01*
X3358277Y-11835412D02*
X3358277Y-11816365D01*
X3358277Y-11816365D02*
X3367801Y-11797317D01*
X3367801Y-11797317D02*
X3386848Y-11787793D01*
X3386848Y-11787793D02*
X3434467Y-11787793D01*
X3434467Y-11787793D02*
X3453515Y-11778269D01*
X3548753Y-11730650D02*
X3548753Y-11930650D01*
X3548753Y-11740174D02*
X3567801Y-11730650D01*
X3567801Y-11730650D02*
X3605896Y-11730650D01*
X3605896Y-11730650D02*
X3624943Y-11740174D01*
X3624943Y-11740174D02*
X3634467Y-11749698D01*
X3634467Y-11749698D02*
X3643991Y-11768746D01*
X3643991Y-11768746D02*
X3643991Y-11825888D01*
X3643991Y-11825888D02*
X3634467Y-11844936D01*
X3634467Y-11844936D02*
X3624943Y-11854460D01*
X3624943Y-11854460D02*
X3605896Y-11863984D01*
X3605896Y-11863984D02*
X3567801Y-11863984D01*
X3567801Y-11863984D02*
X3548753Y-11854460D01*
X3729705Y-11844936D02*
X3739229Y-11854460D01*
X3739229Y-11854460D02*
X3729705Y-11863984D01*
X3729705Y-11863984D02*
X3720182Y-11854460D01*
X3720182Y-11854460D02*
X3729705Y-11844936D01*
X3729705Y-11844936D02*
X3729705Y-11863984D01*
X3729705Y-11740174D02*
X3739229Y-11749698D01*
X3739229Y-11749698D02*
X3729705Y-11759222D01*
X3729705Y-11759222D02*
X3720182Y-11749698D01*
X3720182Y-11749698D02*
X3729705Y-11740174D01*
X3729705Y-11740174D02*
X3729705Y-11759222D01*
X1897500Y-12092500D02*
X2097500Y-12292500D01*
X2097500Y-12092500D02*
X1897500Y-12292500D01*
X2443991Y-12150650D02*
X2443991Y-12283984D01*
X2396372Y-12074460D02*
X2348753Y-12217317D01*
X2348753Y-12217317D02*
X2472563Y-12217317D01*
X2548753Y-12264936D02*
X2558277Y-12274460D01*
X2558277Y-12274460D02*
X2548753Y-12283984D01*
X2548753Y-12283984D02*
X2539229Y-12274460D01*
X2539229Y-12274460D02*
X2548753Y-12264936D01*
X2548753Y-12264936D02*
X2548753Y-12283984D01*
X2682086Y-12083984D02*
X2701134Y-12083984D01*
X2701134Y-12083984D02*
X2720182Y-12093508D01*
X2720182Y-12093508D02*
X2729705Y-12103031D01*
X2729705Y-12103031D02*
X2739229Y-12122079D01*
X2739229Y-12122079D02*
X2748753Y-12160174D01*
X2748753Y-12160174D02*
X2748753Y-12207793D01*
X2748753Y-12207793D02*
X2739229Y-12245888D01*
X2739229Y-12245888D02*
X2729705Y-12264936D01*
X2729705Y-12264936D02*
X2720182Y-12274460D01*
X2720182Y-12274460D02*
X2701134Y-12283984D01*
X2701134Y-12283984D02*
X2682086Y-12283984D01*
X2682086Y-12283984D02*
X2663039Y-12274460D01*
X2663039Y-12274460D02*
X2653515Y-12264936D01*
X2653515Y-12264936D02*
X2643991Y-12245888D01*
X2643991Y-12245888D02*
X2634467Y-12207793D01*
X2634467Y-12207793D02*
X2634467Y-12160174D01*
X2634467Y-12160174D02*
X2643991Y-12122079D01*
X2643991Y-12122079D02*
X2653515Y-12103031D01*
X2653515Y-12103031D02*
X2663039Y-12093508D01*
X2663039Y-12093508D02*
X2682086Y-12083984D01*
X2872562Y-12083984D02*
X2891610Y-12083984D01*
X2891610Y-12083984D02*
X2910658Y-12093508D01*
X2910658Y-12093508D02*
X2920182Y-12103031D01*
X2920182Y-12103031D02*
X2929705Y-12122079D01*
X2929705Y-12122079D02*
X2939229Y-12160174D01*
X2939229Y-12160174D02*
X2939229Y-12207793D01*
X2939229Y-12207793D02*
X2929705Y-12245888D01*
X2929705Y-12245888D02*
X2920182Y-12264936D01*
X2920182Y-12264936D02*
X2910658Y-12274460D01*
X2910658Y-12274460D02*
X2891610Y-12283984D01*
X2891610Y-12283984D02*
X2872562Y-12283984D01*
X2872562Y-12283984D02*
X2853515Y-12274460D01*
X2853515Y-12274460D02*
X2843991Y-12264936D01*
X2843991Y-12264936D02*
X2834467Y-12245888D01*
X2834467Y-12245888D02*
X2824943Y-12207793D01*
X2824943Y-12207793D02*
X2824943Y-12160174D01*
X2824943Y-12160174D02*
X2834467Y-12122079D01*
X2834467Y-12122079D02*
X2843991Y-12103031D01*
X2843991Y-12103031D02*
X2853515Y-12093508D01*
X2853515Y-12093508D02*
X2872562Y-12083984D01*
X3063039Y-12083984D02*
X3082086Y-12083984D01*
X3082086Y-12083984D02*
X3101134Y-12093508D01*
X3101134Y-12093508D02*
X3110658Y-12103031D01*
X3110658Y-12103031D02*
X3120182Y-12122079D01*
X3120182Y-12122079D02*
X3129705Y-12160174D01*
X3129705Y-12160174D02*
X3129705Y-12207793D01*
X3129705Y-12207793D02*
X3120182Y-12245888D01*
X3120182Y-12245888D02*
X3110658Y-12264936D01*
X3110658Y-12264936D02*
X3101134Y-12274460D01*
X3101134Y-12274460D02*
X3082086Y-12283984D01*
X3082086Y-12283984D02*
X3063039Y-12283984D01*
X3063039Y-12283984D02*
X3043991Y-12274460D01*
X3043991Y-12274460D02*
X3034467Y-12264936D01*
X3034467Y-12264936D02*
X3024943Y-12245888D01*
X3024943Y-12245888D02*
X3015420Y-12207793D01*
X3015420Y-12207793D02*
X3015420Y-12160174D01*
X3015420Y-12160174D02*
X3024943Y-12122079D01*
X3024943Y-12122079D02*
X3034467Y-12103031D01*
X3034467Y-12103031D02*
X3043991Y-12093508D01*
X3043991Y-12093508D02*
X3063039Y-12083984D01*
X3215420Y-12283984D02*
X3215420Y-12150650D01*
X3215420Y-12169698D02*
X3224943Y-12160174D01*
X3224943Y-12160174D02*
X3243991Y-12150650D01*
X3243991Y-12150650D02*
X3272563Y-12150650D01*
X3272563Y-12150650D02*
X3291610Y-12160174D01*
X3291610Y-12160174D02*
X3301134Y-12179222D01*
X3301134Y-12179222D02*
X3301134Y-12283984D01*
X3301134Y-12179222D02*
X3310658Y-12160174D01*
X3310658Y-12160174D02*
X3329705Y-12150650D01*
X3329705Y-12150650D02*
X3358277Y-12150650D01*
X3358277Y-12150650D02*
X3377324Y-12160174D01*
X3377324Y-12160174D02*
X3386848Y-12179222D01*
X3386848Y-12179222D02*
X3386848Y-12283984D01*
X3482086Y-12283984D02*
X3482086Y-12150650D01*
X3482086Y-12169698D02*
X3491610Y-12160174D01*
X3491610Y-12160174D02*
X3510658Y-12150650D01*
X3510658Y-12150650D02*
X3539229Y-12150650D01*
X3539229Y-12150650D02*
X3558277Y-12160174D01*
X3558277Y-12160174D02*
X3567801Y-12179222D01*
X3567801Y-12179222D02*
X3567801Y-12283984D01*
X3567801Y-12179222D02*
X3577324Y-12160174D01*
X3577324Y-12160174D02*
X3596372Y-12150650D01*
X3596372Y-12150650D02*
X3624943Y-12150650D01*
X3624943Y-12150650D02*
X3643991Y-12160174D01*
X3643991Y-12160174D02*
X3653515Y-12179222D01*
X3653515Y-12179222D02*
X3653515Y-12283984D01*
X4043991Y-12074460D02*
X3872563Y-12331603D01*
X4301134Y-12083984D02*
X4320182Y-12083984D01*
X4320182Y-12083984D02*
X4339229Y-12093508D01*
X4339229Y-12093508D02*
X4348753Y-12103031D01*
X4348753Y-12103031D02*
X4358277Y-12122079D01*
X4358277Y-12122079D02*
X4367801Y-12160174D01*
X4367801Y-12160174D02*
X4367801Y-12207793D01*
X4367801Y-12207793D02*
X4358277Y-12245888D01*
X4358277Y-12245888D02*
X4348753Y-12264936D01*
X4348753Y-12264936D02*
X4339229Y-12274460D01*
X4339229Y-12274460D02*
X4320182Y-12283984D01*
X4320182Y-12283984D02*
X4301134Y-12283984D01*
X4301134Y-12283984D02*
X4282087Y-12274460D01*
X4282087Y-12274460D02*
X4272563Y-12264936D01*
X4272563Y-12264936D02*
X4263039Y-12245888D01*
X4263039Y-12245888D02*
X4253515Y-12207793D01*
X4253515Y-12207793D02*
X4253515Y-12160174D01*
X4253515Y-12160174D02*
X4263039Y-12122079D01*
X4263039Y-12122079D02*
X4272563Y-12103031D01*
X4272563Y-12103031D02*
X4282087Y-12093508D01*
X4282087Y-12093508D02*
X4301134Y-12083984D01*
X4453515Y-12264936D02*
X4463039Y-12274460D01*
X4463039Y-12274460D02*
X4453515Y-12283984D01*
X4453515Y-12283984D02*
X4443991Y-12274460D01*
X4443991Y-12274460D02*
X4453515Y-12264936D01*
X4453515Y-12264936D02*
X4453515Y-12283984D01*
X4653515Y-12283984D02*
X4539229Y-12283984D01*
X4596372Y-12283984D02*
X4596372Y-12083984D01*
X4596372Y-12083984D02*
X4577325Y-12112555D01*
X4577325Y-12112555D02*
X4558277Y-12131603D01*
X4558277Y-12131603D02*
X4539229Y-12141127D01*
X4834468Y-12083984D02*
X4739229Y-12083984D01*
X4739229Y-12083984D02*
X4729706Y-12179222D01*
X4729706Y-12179222D02*
X4739229Y-12169698D01*
X4739229Y-12169698D02*
X4758277Y-12160174D01*
X4758277Y-12160174D02*
X4805896Y-12160174D01*
X4805896Y-12160174D02*
X4824944Y-12169698D01*
X4824944Y-12169698D02*
X4834468Y-12179222D01*
X4834468Y-12179222D02*
X4843991Y-12198269D01*
X4843991Y-12198269D02*
X4843991Y-12245888D01*
X4843991Y-12245888D02*
X4834468Y-12264936D01*
X4834468Y-12264936D02*
X4824944Y-12274460D01*
X4824944Y-12274460D02*
X4805896Y-12283984D01*
X4805896Y-12283984D02*
X4758277Y-12283984D01*
X4758277Y-12283984D02*
X4739229Y-12274460D01*
X4739229Y-12274460D02*
X4729706Y-12264936D01*
X4910658Y-12083984D02*
X5043991Y-12083984D01*
X5043991Y-12083984D02*
X4958277Y-12283984D01*
X5215420Y-12083984D02*
X5120182Y-12083984D01*
X5120182Y-12083984D02*
X5110658Y-12179222D01*
X5110658Y-12179222D02*
X5120182Y-12169698D01*
X5120182Y-12169698D02*
X5139229Y-12160174D01*
X5139229Y-12160174D02*
X5186849Y-12160174D01*
X5186849Y-12160174D02*
X5205896Y-12169698D01*
X5205896Y-12169698D02*
X5215420Y-12179222D01*
X5215420Y-12179222D02*
X5224944Y-12198269D01*
X5224944Y-12198269D02*
X5224944Y-12245888D01*
X5224944Y-12245888D02*
X5215420Y-12264936D01*
X5215420Y-12264936D02*
X5205896Y-12274460D01*
X5205896Y-12274460D02*
X5186849Y-12283984D01*
X5186849Y-12283984D02*
X5139229Y-12283984D01*
X5139229Y-12283984D02*
X5120182Y-12274460D01*
X5120182Y-12274460D02*
X5110658Y-12264936D01*
X5301134Y-12083984D02*
X5301134Y-12122079D01*
X5377325Y-12083984D02*
X5377325Y-12122079D01*
X5672563Y-12360174D02*
X5663039Y-12350650D01*
X5663039Y-12350650D02*
X5643991Y-12322079D01*
X5643991Y-12322079D02*
X5634468Y-12303031D01*
X5634468Y-12303031D02*
X5624944Y-12274460D01*
X5624944Y-12274460D02*
X5615420Y-12226841D01*
X5615420Y-12226841D02*
X5615420Y-12188746D01*
X5615420Y-12188746D02*
X5624944Y-12141127D01*
X5624944Y-12141127D02*
X5634468Y-12112555D01*
X5634468Y-12112555D02*
X5643991Y-12093508D01*
X5643991Y-12093508D02*
X5663039Y-12064936D01*
X5663039Y-12064936D02*
X5672563Y-12055412D01*
X5739229Y-12103031D02*
X5748753Y-12093508D01*
X5748753Y-12093508D02*
X5767801Y-12083984D01*
X5767801Y-12083984D02*
X5815420Y-12083984D01*
X5815420Y-12083984D02*
X5834468Y-12093508D01*
X5834468Y-12093508D02*
X5843991Y-12103031D01*
X5843991Y-12103031D02*
X5853515Y-12122079D01*
X5853515Y-12122079D02*
X5853515Y-12141127D01*
X5853515Y-12141127D02*
X5843991Y-12169698D01*
X5843991Y-12169698D02*
X5729706Y-12283984D01*
X5729706Y-12283984D02*
X5853515Y-12283984D01*
X6091610Y-12283984D02*
X6091610Y-12083984D01*
X6177325Y-12283984D02*
X6177325Y-12179222D01*
X6177325Y-12179222D02*
X6167801Y-12160174D01*
X6167801Y-12160174D02*
X6148753Y-12150650D01*
X6148753Y-12150650D02*
X6120182Y-12150650D01*
X6120182Y-12150650D02*
X6101134Y-12160174D01*
X6101134Y-12160174D02*
X6091610Y-12169698D01*
X6301134Y-12283984D02*
X6282087Y-12274460D01*
X6282087Y-12274460D02*
X6272563Y-12264936D01*
X6272563Y-12264936D02*
X6263039Y-12245888D01*
X6263039Y-12245888D02*
X6263039Y-12188746D01*
X6263039Y-12188746D02*
X6272563Y-12169698D01*
X6272563Y-12169698D02*
X6282087Y-12160174D01*
X6282087Y-12160174D02*
X6301134Y-12150650D01*
X6301134Y-12150650D02*
X6329706Y-12150650D01*
X6329706Y-12150650D02*
X6348753Y-12160174D01*
X6348753Y-12160174D02*
X6358277Y-12169698D01*
X6358277Y-12169698D02*
X6367801Y-12188746D01*
X6367801Y-12188746D02*
X6367801Y-12245888D01*
X6367801Y-12245888D02*
X6358277Y-12264936D01*
X6358277Y-12264936D02*
X6348753Y-12274460D01*
X6348753Y-12274460D02*
X6329706Y-12283984D01*
X6329706Y-12283984D02*
X6301134Y-12283984D01*
X6482087Y-12283984D02*
X6463039Y-12274460D01*
X6463039Y-12274460D02*
X6453515Y-12255412D01*
X6453515Y-12255412D02*
X6453515Y-12083984D01*
X6634468Y-12274460D02*
X6615420Y-12283984D01*
X6615420Y-12283984D02*
X6577325Y-12283984D01*
X6577325Y-12283984D02*
X6558277Y-12274460D01*
X6558277Y-12274460D02*
X6548753Y-12255412D01*
X6548753Y-12255412D02*
X6548753Y-12179222D01*
X6548753Y-12179222D02*
X6558277Y-12160174D01*
X6558277Y-12160174D02*
X6577325Y-12150650D01*
X6577325Y-12150650D02*
X6615420Y-12150650D01*
X6615420Y-12150650D02*
X6634468Y-12160174D01*
X6634468Y-12160174D02*
X6643991Y-12179222D01*
X6643991Y-12179222D02*
X6643991Y-12198269D01*
X6643991Y-12198269D02*
X6548753Y-12217317D01*
X6720182Y-12274460D02*
X6739230Y-12283984D01*
X6739230Y-12283984D02*
X6777325Y-12283984D01*
X6777325Y-12283984D02*
X6796372Y-12274460D01*
X6796372Y-12274460D02*
X6805896Y-12255412D01*
X6805896Y-12255412D02*
X6805896Y-12245888D01*
X6805896Y-12245888D02*
X6796372Y-12226841D01*
X6796372Y-12226841D02*
X6777325Y-12217317D01*
X6777325Y-12217317D02*
X6748753Y-12217317D01*
X6748753Y-12217317D02*
X6729706Y-12207793D01*
X6729706Y-12207793D02*
X6720182Y-12188746D01*
X6720182Y-12188746D02*
X6720182Y-12179222D01*
X6720182Y-12179222D02*
X6729706Y-12160174D01*
X6729706Y-12160174D02*
X6748753Y-12150650D01*
X6748753Y-12150650D02*
X6777325Y-12150650D01*
X6777325Y-12150650D02*
X6796372Y-12160174D01*
X6872563Y-12360174D02*
X6882087Y-12350650D01*
X6882087Y-12350650D02*
X6901134Y-12322079D01*
X6901134Y-12322079D02*
X6910658Y-12303031D01*
X6910658Y-12303031D02*
X6920182Y-12274460D01*
X6920182Y-12274460D02*
X6929706Y-12226841D01*
X6929706Y-12226841D02*
X6929706Y-12188746D01*
X6929706Y-12188746D02*
X6920182Y-12141127D01*
X6920182Y-12141127D02*
X6910658Y-12112555D01*
X6910658Y-12112555D02*
X6901134Y-12093508D01*
X6901134Y-12093508D02*
X6882087Y-12064936D01*
X6882087Y-12064936D02*
X6872563Y-12055412D01*
X7234468Y-12360174D02*
X7224944Y-12350650D01*
X7224944Y-12350650D02*
X7205896Y-12322079D01*
X7205896Y-12322079D02*
X7196372Y-12303031D01*
X7196372Y-12303031D02*
X7186849Y-12274460D01*
X7186849Y-12274460D02*
X7177325Y-12226841D01*
X7177325Y-12226841D02*
X7177325Y-12188746D01*
X7177325Y-12188746D02*
X7186849Y-12141127D01*
X7186849Y-12141127D02*
X7196372Y-12112555D01*
X7196372Y-12112555D02*
X7205896Y-12093508D01*
X7205896Y-12093508D02*
X7224944Y-12064936D01*
X7224944Y-12064936D02*
X7234468Y-12055412D01*
X7310658Y-12150650D02*
X7310658Y-12283984D01*
X7310658Y-12169698D02*
X7320182Y-12160174D01*
X7320182Y-12160174D02*
X7339230Y-12150650D01*
X7339230Y-12150650D02*
X7367801Y-12150650D01*
X7367801Y-12150650D02*
X7386849Y-12160174D01*
X7386849Y-12160174D02*
X7396372Y-12179222D01*
X7396372Y-12179222D02*
X7396372Y-12283984D01*
X7520182Y-12283984D02*
X7501134Y-12274460D01*
X7501134Y-12274460D02*
X7491611Y-12264936D01*
X7491611Y-12264936D02*
X7482087Y-12245888D01*
X7482087Y-12245888D02*
X7482087Y-12188746D01*
X7482087Y-12188746D02*
X7491611Y-12169698D01*
X7491611Y-12169698D02*
X7501134Y-12160174D01*
X7501134Y-12160174D02*
X7520182Y-12150650D01*
X7520182Y-12150650D02*
X7548753Y-12150650D01*
X7548753Y-12150650D02*
X7567801Y-12160174D01*
X7567801Y-12160174D02*
X7577325Y-12169698D01*
X7577325Y-12169698D02*
X7586849Y-12188746D01*
X7586849Y-12188746D02*
X7586849Y-12245888D01*
X7586849Y-12245888D02*
X7577325Y-12264936D01*
X7577325Y-12264936D02*
X7567801Y-12274460D01*
X7567801Y-12274460D02*
X7548753Y-12283984D01*
X7548753Y-12283984D02*
X7520182Y-12283984D01*
X7643992Y-12150650D02*
X7720182Y-12150650D01*
X7672563Y-12083984D02*
X7672563Y-12255412D01*
X7672563Y-12255412D02*
X7682087Y-12274460D01*
X7682087Y-12274460D02*
X7701134Y-12283984D01*
X7701134Y-12283984D02*
X7720182Y-12283984D01*
X7939230Y-12150650D02*
X7939230Y-12350650D01*
X7939230Y-12160174D02*
X7958277Y-12150650D01*
X7958277Y-12150650D02*
X7996373Y-12150650D01*
X7996373Y-12150650D02*
X8015420Y-12160174D01*
X8015420Y-12160174D02*
X8024944Y-12169698D01*
X8024944Y-12169698D02*
X8034468Y-12188746D01*
X8034468Y-12188746D02*
X8034468Y-12245888D01*
X8034468Y-12245888D02*
X8024944Y-12264936D01*
X8024944Y-12264936D02*
X8015420Y-12274460D01*
X8015420Y-12274460D02*
X7996373Y-12283984D01*
X7996373Y-12283984D02*
X7958277Y-12283984D01*
X7958277Y-12283984D02*
X7939230Y-12274460D01*
X8148753Y-12283984D02*
X8129706Y-12274460D01*
X8129706Y-12274460D02*
X8120182Y-12255412D01*
X8120182Y-12255412D02*
X8120182Y-12083984D01*
X8310658Y-12283984D02*
X8310658Y-12179222D01*
X8310658Y-12179222D02*
X8301134Y-12160174D01*
X8301134Y-12160174D02*
X8282087Y-12150650D01*
X8282087Y-12150650D02*
X8243992Y-12150650D01*
X8243992Y-12150650D02*
X8224944Y-12160174D01*
X8310658Y-12274460D02*
X8291611Y-12283984D01*
X8291611Y-12283984D02*
X8243992Y-12283984D01*
X8243992Y-12283984D02*
X8224944Y-12274460D01*
X8224944Y-12274460D02*
X8215420Y-12255412D01*
X8215420Y-12255412D02*
X8215420Y-12236365D01*
X8215420Y-12236365D02*
X8224944Y-12217317D01*
X8224944Y-12217317D02*
X8243992Y-12207793D01*
X8243992Y-12207793D02*
X8291611Y-12207793D01*
X8291611Y-12207793D02*
X8310658Y-12198269D01*
X8377325Y-12150650D02*
X8453515Y-12150650D01*
X8405896Y-12083984D02*
X8405896Y-12255412D01*
X8405896Y-12255412D02*
X8415420Y-12274460D01*
X8415420Y-12274460D02*
X8434468Y-12283984D01*
X8434468Y-12283984D02*
X8453515Y-12283984D01*
X8596373Y-12274460D02*
X8577325Y-12283984D01*
X8577325Y-12283984D02*
X8539230Y-12283984D01*
X8539230Y-12283984D02*
X8520182Y-12274460D01*
X8520182Y-12274460D02*
X8510658Y-12255412D01*
X8510658Y-12255412D02*
X8510658Y-12179222D01*
X8510658Y-12179222D02*
X8520182Y-12160174D01*
X8520182Y-12160174D02*
X8539230Y-12150650D01*
X8539230Y-12150650D02*
X8577325Y-12150650D01*
X8577325Y-12150650D02*
X8596373Y-12160174D01*
X8596373Y-12160174D02*
X8605896Y-12179222D01*
X8605896Y-12179222D02*
X8605896Y-12198269D01*
X8605896Y-12198269D02*
X8510658Y-12217317D01*
X8777325Y-12283984D02*
X8777325Y-12083984D01*
X8777325Y-12274460D02*
X8758277Y-12283984D01*
X8758277Y-12283984D02*
X8720182Y-12283984D01*
X8720182Y-12283984D02*
X8701135Y-12274460D01*
X8701135Y-12274460D02*
X8691611Y-12264936D01*
X8691611Y-12264936D02*
X8682087Y-12245888D01*
X8682087Y-12245888D02*
X8682087Y-12188746D01*
X8682087Y-12188746D02*
X8691611Y-12169698D01*
X8691611Y-12169698D02*
X8701135Y-12160174D01*
X8701135Y-12160174D02*
X8720182Y-12150650D01*
X8720182Y-12150650D02*
X8758277Y-12150650D01*
X8758277Y-12150650D02*
X8777325Y-12160174D01*
X8853516Y-12360174D02*
X8863039Y-12350650D01*
X8863039Y-12350650D02*
X8882087Y-12322079D01*
X8882087Y-12322079D02*
X8891611Y-12303031D01*
X8891611Y-12303031D02*
X8901135Y-12274460D01*
X8901135Y-12274460D02*
X8910658Y-12226841D01*
X8910658Y-12226841D02*
X8910658Y-12188746D01*
X8910658Y-12188746D02*
X8901135Y-12141127D01*
X8901135Y-12141127D02*
X8891611Y-12112555D01*
X8891611Y-12112555D02*
X8882087Y-12093508D01*
X8882087Y-12093508D02*
X8863039Y-12064936D01*
X8863039Y-12064936D02*
X8853516Y-12055412D01*
M02*
