%TF.GenerationSoftware,KiCad,Pcbnew,9.0.3-9.0.3-0~ubuntu22.04.1*%
%TF.CreationDate,2025-08-01T13:44:14+03:00*%
%TF.ProjectId,test,74657374-2e6b-4696-9361-645f70636258,rev?*%
%TF.SameCoordinates,Original*%
%TF.FileFunction,Copper,L1,Top*%
%TF.FilePolarity,Positive*%
%FSLAX46Y46*%
G04 Gerber Fmt 4.6, Leading zero omitted, Abs format (unit mm)*
G04 Created by KiCad (PCBNEW 9.0.3-9.0.3-0~ubuntu22.04.1) date 2025-08-01 13:44:14*
%MOMM*%
%LPD*%
G01*
G04 APERTURE LIST*
G04 Aperture macros list*
%AMRoundRect*
0 Rectangle with rounded corners*
0 $1 Rounding radius*
0 $2 $3 $4 $5 $6 $7 $8 $9 X,Y pos of 4 corners*
0 Add a 4 corners polygon primitive as box body*
4,1,4,$2,$3,$4,$5,$6,$7,$8,$9,$2,$3,0*
0 Add four circle primitives for the rounded corners*
1,1,$1+$1,$2,$3*
1,1,$1+$1,$4,$5*
1,1,$1+$1,$6,$7*
1,1,$1+$1,$8,$9*
0 Add four rect primitives between the rounded corners*
20,1,$1+$1,$2,$3,$4,$5,0*
20,1,$1+$1,$4,$5,$6,$7,0*
20,1,$1+$1,$6,$7,$8,$9,0*
20,1,$1+$1,$8,$9,$2,$3,0*%
G04 Aperture macros list end*
%TA.AperFunction,EtchedComponent*%
%ADD10C,0.200000*%
%TD*%
%TA.AperFunction,ComponentPad*%
%ADD11C,2.000000*%
%TD*%
%TA.AperFunction,SMDPad,CuDef*%
%ADD12RoundRect,0.190500X-0.762000X-0.444500X0.762000X-0.444500X0.762000X0.444500X-0.762000X0.444500X0*%
%TD*%
%TA.AperFunction,ViaPad*%
%ADD13C,0.600000*%
%TD*%
%TA.AperFunction,Conductor*%
%ADD14C,0.800000*%
%TD*%
%TA.AperFunction,Conductor*%
%ADD15C,1.000000*%
%TD*%
%TA.AperFunction,Conductor*%
%ADD16C,0.500000*%
%TD*%
%TA.AperFunction,Conductor*%
%ADD17C,0.700000*%
%TD*%
%TA.AperFunction,SMDPad,CuDef*%
%ADD18R,1.500000X0.900000*%
%TD*%
%TA.AperFunction,SMDPad,CuDef*%
%ADD19R,0.900000X1.500000*%
%TD*%
%TA.AperFunction,Conductor*%
%ADD20C,0.600000*%
%TD*%
G04 APERTURE END LIST*
%TO.C,D2*%
D10*
X45865022Y-15672025D02*
X43938014Y-15672025D01*
X43938014Y-15338661D01*
X45865022Y-15338661D01*
X45865022Y-15672025D01*
%TA.AperFunction,EtchedComponent*%
G36*
X45865022Y-15672025D02*
G01*
X43938014Y-15672025D01*
X43938014Y-15338661D01*
X45865022Y-15338661D01*
X45865022Y-15672025D01*
G37*
%TD.AperFunction*%
X45865022Y-15672025D02*
X43938014Y-15672025D01*
X43938014Y-15338661D01*
X45865022Y-15338661D01*
X45865022Y-15672025D01*
%TA.AperFunction,EtchedComponent*%
G36*
X45865022Y-15672025D02*
G01*
X43938014Y-15672025D01*
X43938014Y-15338661D01*
X45865022Y-15338661D01*
X45865022Y-15672025D01*
G37*
%TD.AperFunction*%
X45865022Y-21271418D02*
X43938014Y-21271418D01*
X43938014Y-20938054D01*
X45865022Y-20938054D01*
X45865022Y-21271418D01*
%TA.AperFunction,EtchedComponent*%
G36*
X45865022Y-21271418D02*
G01*
X43938014Y-21271418D01*
X43938014Y-20938054D01*
X45865022Y-20938054D01*
X45865022Y-21271418D01*
G37*
%TD.AperFunction*%
X45867784Y-22078111D02*
X43940776Y-22078111D01*
X43940776Y-21744747D01*
X45867784Y-21744747D01*
X45867784Y-22078111D01*
%TA.AperFunction,EtchedComponent*%
G36*
X45867784Y-22078111D02*
G01*
X43940776Y-22078111D01*
X43940776Y-21744747D01*
X45867784Y-21744747D01*
X45867784Y-22078111D01*
G37*
%TD.AperFunction*%
X45868602Y-17306247D02*
X43941594Y-17306247D01*
X43941594Y-16972883D01*
X45868602Y-16972883D01*
X45868602Y-17306247D01*
%TA.AperFunction,EtchedComponent*%
G36*
X45868602Y-17306247D02*
G01*
X43941594Y-17306247D01*
X43941594Y-16972883D01*
X45868602Y-16972883D01*
X45868602Y-17306247D01*
G37*
%TD.AperFunction*%
X45868602Y-17306247D02*
X43941594Y-17306247D01*
X43941594Y-16972883D01*
X45868602Y-16972883D01*
X45868602Y-17306247D01*
%TA.AperFunction,EtchedComponent*%
G36*
X45868602Y-17306247D02*
G01*
X43941594Y-17306247D01*
X43941594Y-16972883D01*
X45868602Y-16972883D01*
X45868602Y-17306247D01*
G37*
%TD.AperFunction*%
X45874966Y-16497365D02*
X43947958Y-16497365D01*
X43947958Y-16164001D01*
X45874966Y-16164001D01*
X45874966Y-16497365D01*
%TA.AperFunction,EtchedComponent*%
G36*
X45874966Y-16497365D02*
G01*
X43947958Y-16497365D01*
X43947958Y-16164001D01*
X45874966Y-16164001D01*
X45874966Y-16497365D01*
G37*
%TD.AperFunction*%
X45874966Y-16497365D02*
X43947958Y-16497365D01*
X43947958Y-16164001D01*
X45874966Y-16164001D01*
X45874966Y-16497365D01*
%TA.AperFunction,EtchedComponent*%
G36*
X45874966Y-16497365D02*
G01*
X43947958Y-16497365D01*
X43947958Y-16164001D01*
X45874966Y-16164001D01*
X45874966Y-16497365D01*
G37*
%TD.AperFunction*%
X45876071Y-22904003D02*
X43949063Y-22904003D01*
X43949063Y-22570639D01*
X45876071Y-22570639D01*
X45876071Y-22904003D01*
%TA.AperFunction,EtchedComponent*%
G36*
X45876071Y-22904003D02*
G01*
X43949063Y-22904003D01*
X43949063Y-22570639D01*
X45876071Y-22570639D01*
X45876071Y-22904003D01*
G37*
%TD.AperFunction*%
X45884358Y-18873710D02*
X43957350Y-18873710D01*
X43957350Y-18540346D01*
X45884358Y-18540346D01*
X45884358Y-18873710D01*
%TA.AperFunction,EtchedComponent*%
G36*
X45884358Y-18873710D02*
G01*
X43957350Y-18873710D01*
X43957350Y-18540346D01*
X45884358Y-18540346D01*
X45884358Y-18873710D01*
G37*
%TD.AperFunction*%
X45884358Y-18873710D02*
X43957350Y-18873710D01*
X43957350Y-18540346D01*
X45884358Y-18540346D01*
X45884358Y-18873710D01*
%TA.AperFunction,EtchedComponent*%
G36*
X45884358Y-18873710D02*
G01*
X43957350Y-18873710D01*
X43957350Y-18540346D01*
X45884358Y-18540346D01*
X45884358Y-18873710D01*
G37*
%TD.AperFunction*%
X45884358Y-20500770D02*
X43957350Y-20500770D01*
X43957350Y-20167406D01*
X45884358Y-20167406D01*
X45884358Y-20500770D01*
%TA.AperFunction,EtchedComponent*%
G36*
X45884358Y-20500770D02*
G01*
X43957350Y-20500770D01*
X43957350Y-20167406D01*
X45884358Y-20167406D01*
X45884358Y-20500770D01*
G37*
%TD.AperFunction*%
X45884358Y-20500770D02*
X43957350Y-20500770D01*
X43957350Y-20167406D01*
X45884358Y-20167406D01*
X45884358Y-20500770D01*
%TA.AperFunction,EtchedComponent*%
G36*
X45884358Y-20500770D02*
G01*
X43957350Y-20500770D01*
X43957350Y-20167406D01*
X45884358Y-20167406D01*
X45884358Y-20500770D01*
G37*
%TD.AperFunction*%
X45886899Y-13138723D02*
X43959891Y-13138723D01*
X43959891Y-12805359D01*
X45886899Y-12805359D01*
X45886899Y-13138723D01*
%TA.AperFunction,EtchedComponent*%
G36*
X45886899Y-13138723D02*
G01*
X43959891Y-13138723D01*
X43959891Y-12805359D01*
X45886899Y-12805359D01*
X45886899Y-13138723D01*
G37*
%TD.AperFunction*%
X45886899Y-13138723D02*
X43959891Y-13138723D01*
X43959891Y-12805359D01*
X45886899Y-12805359D01*
X45886899Y-13138723D01*
%TA.AperFunction,EtchedComponent*%
G36*
X45886899Y-13138723D02*
G01*
X43959891Y-13138723D01*
X43959891Y-12805359D01*
X45886899Y-12805359D01*
X45886899Y-13138723D01*
G37*
%TD.AperFunction*%
X45889212Y-23747583D02*
X43962204Y-23747583D01*
X43962204Y-23414219D01*
X45889212Y-23414219D01*
X45889212Y-23747583D01*
%TA.AperFunction,EtchedComponent*%
G36*
X45889212Y-23747583D02*
G01*
X43962204Y-23747583D01*
X43962204Y-23414219D01*
X45889212Y-23414219D01*
X45889212Y-23747583D01*
G37*
%TD.AperFunction*%
X45889882Y-19696840D02*
X43962874Y-19696840D01*
X43962874Y-19363476D01*
X45889882Y-19363476D01*
X45889882Y-19696840D01*
%TA.AperFunction,EtchedComponent*%
G36*
X45889882Y-19696840D02*
G01*
X43962874Y-19696840D01*
X43962874Y-19363476D01*
X45889882Y-19363476D01*
X45889882Y-19696840D01*
G37*
%TD.AperFunction*%
X45894854Y-13945461D02*
X43967846Y-13945461D01*
X43967846Y-13612097D01*
X45894854Y-13612097D01*
X45894854Y-13945461D01*
%TA.AperFunction,EtchedComponent*%
G36*
X45894854Y-13945461D02*
G01*
X43967846Y-13945461D01*
X43967846Y-13612097D01*
X45894854Y-13612097D01*
X45894854Y-13945461D01*
G37*
%TD.AperFunction*%
X45894854Y-13945461D02*
X43967846Y-13945461D01*
X43967846Y-13612097D01*
X45894854Y-13612097D01*
X45894854Y-13945461D01*
%TA.AperFunction,EtchedComponent*%
G36*
X45894854Y-13945461D02*
G01*
X43967846Y-13945461D01*
X43967846Y-13612097D01*
X45894854Y-13612097D01*
X45894854Y-13945461D01*
G37*
%TD.AperFunction*%
X45894854Y-14800632D02*
X43967846Y-14800632D01*
X43967846Y-14467268D01*
X45894854Y-14467268D01*
X45894854Y-14800632D01*
%TA.AperFunction,EtchedComponent*%
G36*
X45894854Y-14800632D02*
G01*
X43967846Y-14800632D01*
X43967846Y-14467268D01*
X45894854Y-14467268D01*
X45894854Y-14800632D01*
G37*
%TD.AperFunction*%
%TD*%
D11*
%TO.P,SW9,1,1*%
%TO.N,Net-(U2-D25)*%
X15265067Y-13566869D03*
X27840798Y-13615869D03*
%TO.P,SW9,GND*%
%TO.N,N/C*%
X15339491Y-18538449D03*
X27838957Y-18500000D03*
%TD*%
%TO.P,SW11,1,1*%
%TO.N,Net-(U2-D13)*%
X15265067Y-27566869D03*
X27840798Y-27615869D03*
%TO.P,SW11,GND*%
%TO.N,N/C*%
X15339491Y-32538449D03*
X27838957Y-32500000D03*
%TD*%
%TO.P,SW10,1,1*%
%TO.N,Net-(U2-D14)*%
X-234933Y-7066869D03*
X12340798Y-7115869D03*
%TO.P,SW10,GND*%
%TO.N,N/C*%
X-160509Y-12038449D03*
X12338957Y-12000000D03*
%TD*%
D12*
%TO.P,SW5pin1,1,1*%
%TO.N,Net-(U2-D21)*%
X112570000Y-18719983D03*
%TO.P,SW5pin1,2,2*%
%TO.N,Net-(U2-D19)*%
X112570000Y-22719983D03*
%TO.P,SW5pin1,3,3*%
%TO.N,Net-(U2-D17)*%
X100570000Y-25219983D03*
%TO.P,SW5pin1,4,4*%
%TO.N,Net-(U2-D32)*%
X100570000Y-22719983D03*
%TO.P,SW5pin1,5,5*%
%TO.N,Net-(U2-D16)*%
X100570000Y-18719983D03*
%TO.P,SW5pin1,GND,GND*%
%TO.N,Net-(D1-ESP-)*%
X112570000Y-25219983D03*
%TD*%
D11*
%TO.P,SW12,1,1*%
%TO.N,Net-(U2-D22)*%
X-234933Y-21066869D03*
X12340798Y-21115869D03*
%TO.P,SW12,GND*%
%TO.N,N/C*%
X-160509Y-26038449D03*
X12338957Y-26000000D03*
%TD*%
%TO.P,D1,1*%
%TO.N,N/C*%
X97165000Y-35505000D03*
%TO.P,D1,2*%
X83165000Y-35505000D03*
%TO.P,D1,3*%
X97165000Y-12505000D03*
%TO.P,D1,4*%
X83165000Y-12505000D03*
%TO.P,D1,5*%
X94625000Y-12505000D03*
%TO.P,D1,6*%
X85705000Y-12505000D03*
%TD*%
D13*
%TO.N,Net-(D1-ESP-)*%
X64214364Y-39478207D03*
X62884997Y-39543585D03*
X61468457Y-39543585D03*
X60070000Y-39500000D03*
X58744343Y-39456414D03*
%TO.N,*%
X43049805Y-12972041D03*
X83070000Y-23500000D03*
X38799838Y-5719983D03*
X74799838Y-5719983D03*
X74579838Y-24939983D03*
X95070000Y-20500000D03*
X38799838Y-8219983D03*
X83070000Y-18000000D03*
X38799838Y-15719983D03*
X78070000Y-20500000D03*
X78070000Y-25000000D03*
X74799838Y-9719983D03*
X80070000Y-20500000D03*
X50476376Y-16273188D03*
X36799838Y-15719983D03*
X47799838Y-16330683D03*
X74570000Y-27520059D03*
X47799838Y-28719983D03*
X79070000Y-20500000D03*
X81070000Y-20500000D03*
%TO.N,Net-(U2-D21)*%
X77791530Y-16221530D03*
%TO.N,Net-(U2-D13)*%
X36799838Y-25719983D03*
%TO.N,Net-(U2-D25)*%
X28068795Y-8219983D03*
%TO.N,Net-(U2-D22)*%
X38799838Y-20219983D03*
%TO.N,Net-(U2-D14)*%
X28068795Y-5719983D03*
%TO.N,Net-(D1-ESP-)*%
X40070000Y-12949821D03*
X51299838Y-28719983D03*
%TO.N,Net-(U2-D16)*%
X80294555Y-15775445D03*
%TO.N,Net-(U2-D19)*%
X79070000Y-15000000D03*
%TO.N,Net-(U2-D32)*%
X100570000Y-20500000D03*
%TO.N,Net-(U2-D17)*%
X81459084Y-16610916D03*
%TD*%
D14*
%TO.N,*%
X76376449Y-27213610D02*
X76070000Y-27520059D01*
D15*
X74799838Y-5719983D02*
X38799838Y-5719983D01*
D14*
X79070000Y-20500000D02*
X80070000Y-20500000D01*
D16*
X47834231Y-16330683D02*
X47865248Y-16361700D01*
D15*
X76799838Y-27520059D02*
X76070000Y-27520059D01*
D16*
X46859284Y-28558503D02*
X47020764Y-28719983D01*
X49480607Y-16219983D02*
X49480607Y-18619320D01*
X50799838Y-17219983D02*
X54299838Y-17219983D01*
X46799838Y-21946596D02*
X44939447Y-21946596D01*
D14*
X46799838Y-21946596D02*
X46799838Y-22719983D01*
D16*
X51619667Y-13658915D02*
X51785629Y-13492953D01*
X49480607Y-14728445D02*
X49480607Y-16219983D01*
X45920364Y-20334088D02*
X44920854Y-20334088D01*
D14*
X78070000Y-25000000D02*
X78070000Y-20500000D01*
D15*
X95070000Y-20500000D02*
X81070000Y-20500000D01*
D16*
X44931350Y-14633950D02*
X49386112Y-14633950D01*
X44929905Y-22719983D02*
X44912567Y-22737321D01*
X48299838Y-27219983D02*
X48572041Y-27492186D01*
X46799838Y-22719983D02*
X44929905Y-22719983D01*
X47020764Y-28719983D02*
X47799838Y-28719983D01*
D15*
X83070000Y-18000000D02*
X83070000Y-12600000D01*
D16*
X42049077Y-15444555D02*
X42070000Y-15423632D01*
D14*
X38799838Y-8219983D02*
X38799838Y-10719983D01*
X80070000Y-20500000D02*
X81070000Y-20500000D01*
D16*
X46724294Y-19530158D02*
X46724294Y-17993477D01*
X44901518Y-15505343D02*
X42109865Y-15505343D01*
X44931350Y-13778779D02*
X51499803Y-13778779D01*
D15*
X76070000Y-27520059D02*
X72784897Y-27520059D01*
D16*
X42109865Y-15505343D02*
X42049077Y-15444555D01*
X42563477Y-17993477D02*
X41069309Y-16499309D01*
X46684591Y-21104736D02*
X46799838Y-21219983D01*
X49386112Y-14633950D02*
X49388406Y-14636244D01*
D14*
X38799838Y-10719983D02*
X36799838Y-10719983D01*
D16*
X48285684Y-27205829D02*
X48299838Y-27219983D01*
X47799838Y-16330683D02*
X47834231Y-16330683D01*
D14*
X46799838Y-22719983D02*
X46799838Y-23466504D01*
D16*
X51499803Y-13778779D02*
X51619667Y-13658915D01*
X44923395Y-12972041D02*
X43049805Y-12972041D01*
X46724294Y-19530158D02*
X45920364Y-20334088D01*
D14*
X36799838Y-10719983D02*
X36799838Y-15719983D01*
D16*
X49480607Y-18619320D02*
X54441012Y-18619320D01*
D14*
X57299838Y-10219983D02*
X57799838Y-10719983D01*
D16*
X46685441Y-23580901D02*
X44925708Y-23580901D01*
X48285684Y-17114059D02*
X48285684Y-27205829D01*
D15*
X76799838Y-27520059D02*
X83070000Y-27520059D01*
D14*
X41069309Y-8255818D02*
X42105144Y-7219983D01*
D16*
X46799838Y-23466504D02*
X46685441Y-23580901D01*
X50476376Y-16896521D02*
X50799838Y-17219983D01*
D14*
X38799838Y-10719983D02*
X38799838Y-15719983D01*
D16*
X44939447Y-21946596D02*
X44904280Y-21911429D01*
D14*
X78070000Y-20500000D02*
X79070000Y-20500000D01*
D16*
X51785629Y-13492953D02*
X54422572Y-13492953D01*
D14*
X46799838Y-23466504D02*
X46799838Y-28499057D01*
X76376449Y-7570494D02*
X76376449Y-27213610D01*
D16*
X50476376Y-16273188D02*
X50476376Y-16896521D01*
X44926378Y-19530158D02*
X46724294Y-19530158D01*
X49388406Y-14636244D02*
X49480607Y-14728445D01*
D14*
X42070000Y-15423632D02*
X42070000Y-10219983D01*
D16*
X44911462Y-16330683D02*
X47799838Y-16330683D01*
X44905098Y-17139565D02*
X48260178Y-17139565D01*
D14*
X48572041Y-27492186D02*
X54592221Y-27492186D01*
D16*
X46799838Y-28499057D02*
X46859284Y-28558503D01*
D14*
X38799838Y-5719983D02*
X38799838Y-8219983D01*
D15*
X83070000Y-27520059D02*
X83070000Y-23500000D01*
D14*
X42105144Y-7219983D02*
X76025938Y-7219983D01*
X46799838Y-21219983D02*
X46799838Y-21946596D01*
D16*
X44901518Y-21104736D02*
X46684591Y-21104736D01*
D14*
X76025938Y-7219983D02*
X76376449Y-7570494D01*
D16*
X41069309Y-16499309D02*
X41069309Y-8255818D01*
D14*
X42070000Y-10219983D02*
X57299838Y-10219983D01*
D16*
X48260178Y-17139565D02*
X48285684Y-17114059D01*
X83070000Y-12600000D02*
X83165000Y-12505000D01*
X54441012Y-18619320D02*
X54496333Y-18563999D01*
X46724294Y-17993477D02*
X42563477Y-17993477D01*
D15*
%TO.N,Net-(U2-D21)*%
X79135712Y-4500000D02*
X103570000Y-4500000D01*
D17*
X77791530Y-5844182D02*
X79135712Y-4500000D01*
D15*
X103570000Y-4500000D02*
X103570000Y-11000000D01*
D17*
X77791530Y-16221530D02*
X77791530Y-5844182D01*
X111289983Y-18719983D02*
X112570000Y-18719983D01*
D15*
X103570000Y-11000000D02*
X111289983Y-18719983D01*
%TO.N,Net-(U2-D13)*%
X27791798Y-27566869D02*
X27840798Y-27615869D01*
X36799838Y-25719983D02*
X34903952Y-27615869D01*
X34903952Y-27615869D02*
X27840798Y-27615869D01*
X15265067Y-27566869D02*
X27791798Y-27566869D01*
%TO.N,Net-(U2-D25)*%
X28068795Y-8219983D02*
X28068795Y-13387872D01*
X15265067Y-13566869D02*
X27791798Y-13566869D01*
D16*
X28068795Y-13387872D02*
X27840798Y-13615869D01*
D15*
X27791798Y-13566869D02*
X27840798Y-13615869D01*
%TO.N,Net-(U2-D22)*%
X38799838Y-20219983D02*
X37309694Y-21710127D01*
X12291798Y-21066869D02*
X12340798Y-21115869D01*
X-234933Y-21066869D02*
X12291798Y-21066869D01*
X37309694Y-21710127D02*
X13068795Y-21710127D01*
X13068795Y-21710127D02*
X12568795Y-21210127D01*
%TO.N,Net-(U2-D14)*%
X12291798Y-7066869D02*
X12340798Y-7115869D01*
X12435056Y-7210127D02*
X12340798Y-7115869D01*
X28068795Y-5719983D02*
X13736684Y-5719983D01*
X-234933Y-7066869D02*
X12291798Y-7066869D01*
X13736684Y-5719983D02*
X12340798Y-7115869D01*
%TO.N,Net-(D1-ESP-)*%
X12338957Y-32480289D02*
X12568795Y-32710127D01*
D16*
X97070000Y-28219983D02*
X97165000Y-28124983D01*
D14*
X110570001Y-28719983D02*
X111679992Y-27609992D01*
X97165000Y-28124983D02*
X97165000Y-12224983D01*
D15*
X12568795Y-18210127D02*
X15011169Y-18210127D01*
D16*
X111165000Y-28124983D02*
X111679992Y-27609992D01*
D14*
X96570000Y-28719983D02*
X97070000Y-28219983D01*
D15*
X12338957Y-12000000D02*
X12568795Y-12229838D01*
X51299838Y-28719983D02*
X54799838Y-28719983D01*
X12300508Y-12038449D02*
X12338957Y-12000000D01*
D16*
X40299838Y-18719983D02*
X40079855Y-18500000D01*
D15*
X12338957Y-26000000D02*
X-122060Y-26000000D01*
D14*
X96570000Y-28719983D02*
X110570001Y-28719983D01*
D16*
X40312793Y-18707028D02*
X40299838Y-18719983D01*
D15*
X41878838Y-29798983D02*
X39177821Y-32500000D01*
X-122060Y-26000000D02*
X-160509Y-26038449D01*
X51299838Y-29798983D02*
X51299838Y-28719983D01*
D17*
X72799838Y-28719983D02*
X96570000Y-28719983D01*
D15*
X-160509Y-12038449D02*
X12300508Y-12038449D01*
D14*
X111679992Y-27609992D02*
X112570000Y-26719983D01*
D16*
X40070000Y-12949821D02*
X40070000Y-18490145D01*
D15*
X15339491Y-18538449D02*
X27800508Y-18538449D01*
X12568795Y-12229838D02*
X12568795Y-18210127D01*
X40079855Y-18500000D02*
X27838957Y-18500000D01*
D14*
X112570000Y-26719983D02*
X112570000Y-25219983D01*
D15*
X39177821Y-32500000D02*
X27838957Y-32500000D01*
X27800508Y-32538449D02*
X27838957Y-32500000D01*
X40299838Y-28219983D02*
X41878838Y-29798983D01*
X15339491Y-32538449D02*
X27800508Y-32538449D01*
X12740473Y-32538449D02*
X15339491Y-32538449D01*
X-627352Y-26505292D02*
X-160509Y-26038449D01*
X27800508Y-18538449D02*
X27838957Y-18500000D01*
X12338957Y-26000000D02*
X12338957Y-32480289D01*
D16*
X44920854Y-18707028D02*
X40312793Y-18707028D01*
X40070000Y-18490145D02*
X40299838Y-18719983D01*
D15*
X15011169Y-18210127D02*
X15339491Y-18538449D01*
X41878838Y-29798983D02*
X51299838Y-29798983D01*
X40299838Y-18719983D02*
X40299838Y-28219983D01*
D16*
X89340162Y-28719983D02*
X96570000Y-28719983D01*
D15*
X12568795Y-32710127D02*
X12740473Y-32538449D01*
D17*
%TO.N,Net-(U2-D16)*%
X80294555Y-8775445D02*
X80294555Y-15775445D01*
D15*
X100570000Y-7911292D02*
X100363553Y-7704845D01*
D17*
X81158708Y-7911292D02*
X80294555Y-8775445D01*
D15*
X100570000Y-18719983D02*
X100570000Y-7911292D01*
X81365155Y-7704845D02*
X81158708Y-7911292D01*
X100363553Y-7704845D02*
X81365155Y-7704845D01*
%TO.N,Net-(U2-D19)*%
X112570000Y-22719983D02*
X102070000Y-12219983D01*
X102070000Y-6129273D02*
X79940727Y-6129273D01*
D17*
X79070000Y-7000000D02*
X79070000Y-15000000D01*
X79940727Y-6129273D02*
X79070000Y-7000000D01*
D15*
X102070000Y-12219983D02*
X102070000Y-6129273D01*
D14*
%TO.N,Net-(U2-D32)*%
X100570000Y-22719983D02*
X100570000Y-20500000D01*
D16*
%TO.N,Net-(U2-D17)*%
X99042440Y-25111744D02*
X98830009Y-24899313D01*
D17*
X98830009Y-24899313D02*
X98830009Y-9219983D01*
X81778873Y-9291127D02*
X84728694Y-9291127D01*
X84799838Y-9219983D02*
X98830009Y-9219983D01*
D16*
X100461761Y-25111744D02*
X99042440Y-25111744D01*
D17*
X81459084Y-16610916D02*
X81459084Y-9610916D01*
D16*
X84728694Y-9291127D02*
X84799838Y-9219983D01*
X100570000Y-25219983D02*
X100461761Y-25111744D01*
D17*
X81459084Y-9610916D02*
X81778873Y-9291127D01*
%TD*%
D11*
%TO.P,SW9,1,1*%
%TO.N,Net-(U2-D25)*%
X15265067Y-13566869D03*
X27840798Y-13615869D03*
%TO.P,SW9,GND*%
%TO.N,N/C*%
X15339491Y-18538449D03*
X27838957Y-18500000D03*
%TD*%
%TO.P,SW11,1,1*%
%TO.N,Net-(U2-D13)*%
X15265067Y-27566869D03*
X27840798Y-27615869D03*
%TO.P,SW11,GND*%
%TO.N,N/C*%
X15339491Y-32538449D03*
X27838957Y-32500000D03*
%TD*%
%TO.P,SW10,1,1*%
%TO.N,Net-(U2-D14)*%
X-234933Y-7066869D03*
X12340798Y-7115869D03*
%TO.P,SW10,GND*%
%TO.N,N/C*%
X-160509Y-12038449D03*
X12338957Y-12000000D03*
%TD*%
%TO.P,SW12,1,1*%
%TO.N,Net-(U2-D22)*%
X-234933Y-21066869D03*
X12340798Y-21115869D03*
%TO.P,SW12,GND*%
%TO.N,N/C*%
X-160509Y-26038449D03*
X12338957Y-26000000D03*
%TD*%
%TO.P,D1,1*%
%TO.N,N/C*%
X97165000Y-35505000D03*
%TO.P,D1,2*%
X83165000Y-35505000D03*
%TO.P,D1,3*%
X97165000Y-12505000D03*
%TO.P,D1,4*%
X83165000Y-12505000D03*
%TO.P,D1,5*%
X94625000Y-12505000D03*
%TO.P,D1,6*%
X85705000Y-12505000D03*
%TD*%
D18*
%TO.P,U2,1*%
%TO.N,N/C*%
X55049838Y-28749983D03*
%TO.P,U2,2*%
X55049838Y-27479983D03*
%TO.P,U2,3*%
X55049838Y-26209983D03*
%TO.P,U2,4*%
X55049838Y-24939983D03*
%TO.P,U2,5*%
X55049838Y-23669983D03*
%TO.P,U2,6*%
X55049838Y-22399983D03*
%TO.P,U2,7*%
X55049838Y-21129983D03*
%TO.P,U2,8*%
X55049838Y-19859983D03*
%TO.P,U2,9*%
X55049838Y-18589983D03*
%TO.P,U2,10*%
X55049838Y-17319983D03*
%TO.P,U2,11*%
X55049838Y-16049983D03*
%TO.P,U2,12*%
X55049838Y-14779983D03*
%TO.P,U2,13*%
X55049838Y-13509983D03*
%TO.P,U2,14*%
X55049838Y-12239983D03*
D19*
%TO.P,U2,15*%
X58084838Y-10989983D03*
%TO.P,U2,16*%
X59354838Y-10989983D03*
%TO.P,U2,17*%
X60624838Y-10989983D03*
%TO.P,U2,18*%
X61894838Y-10989983D03*
%TO.P,U2,19*%
X63164838Y-10989983D03*
%TO.P,U2,20*%
X64434838Y-10989983D03*
%TO.P,U2,21*%
X65704838Y-10989983D03*
%TO.P,U2,22*%
X66974838Y-10989983D03*
%TO.P,U2,23*%
X68244838Y-10989983D03*
%TO.P,U2,24*%
X69514838Y-10989983D03*
D18*
%TO.P,U2,25*%
X72549838Y-12239983D03*
%TO.P,U2,26*%
X72549838Y-13509983D03*
%TO.P,U2,27*%
X72549838Y-14779983D03*
%TO.P,U2,28*%
X72549838Y-16049983D03*
%TO.P,U2,29*%
X72549838Y-17319983D03*
%TO.P,U2,30*%
X72549838Y-18589983D03*
%TO.P,U2,31*%
X72549838Y-19859983D03*
%TO.P,U2,32*%
X72549838Y-21129983D03*
%TO.P,U2,33*%
X72549838Y-22399983D03*
%TO.P,U2,34*%
X72549838Y-23669983D03*
%TO.P,U2,35*%
X72549838Y-24939983D03*
%TO.P,U2,36*%
X72549838Y-26209983D03*
%TO.P,U2,37*%
X72549838Y-27479983D03*
%TO.P,U2,38*%
X72549838Y-28749983D03*
%TD*%
D13*
%TO.N,Net-(D1-ESP-)*%
X64214364Y-39478207D03*
X62884997Y-39543585D03*
X61468457Y-39543585D03*
X60070000Y-39500000D03*
X58744343Y-39456414D03*
%TO.N,*%
X43049805Y-12972041D03*
X83070000Y-23500000D03*
X38799838Y-5719983D03*
X74799838Y-5719983D03*
X74579838Y-24939983D03*
X95070000Y-20500000D03*
X38799838Y-8219983D03*
X83070000Y-18000000D03*
X38799838Y-15719983D03*
X78070000Y-20500000D03*
X78070000Y-25000000D03*
X74799838Y-9719983D03*
X80070000Y-20500000D03*
X50476376Y-16273188D03*
X36799838Y-15719983D03*
X47799838Y-16330683D03*
X74570000Y-27520059D03*
X47799838Y-28719983D03*
X79070000Y-20500000D03*
X81070000Y-20500000D03*
%TO.N,Net-(U2-D21)*%
X77791530Y-16221530D03*
%TO.N,Net-(U2-D13)*%
X36799838Y-25719983D03*
%TO.N,Net-(U2-D25)*%
X28068795Y-8219983D03*
%TO.N,Net-(U2-D22)*%
X38799838Y-20219983D03*
%TO.N,Net-(U2-D14)*%
X28068795Y-5719983D03*
%TO.N,Net-(D1-ESP-)*%
X40070000Y-12949821D03*
X51299838Y-28719983D03*
%TO.N,Net-(U2-D16)*%
X80294555Y-15775445D03*
%TO.N,Net-(U2-D19)*%
X79070000Y-15000000D03*
%TO.N,Net-(U2-D32)*%
X100570000Y-20500000D03*
%TO.N,Net-(U2-D17)*%
X81459084Y-16610916D03*
%TD*%
D14*
%TO.N,Net-(D1-ESP-)*%
X70070000Y-18000000D02*
X62866559Y-25203441D01*
X62866559Y-25203441D02*
X62866559Y-39500000D01*
X70070000Y-14000000D02*
X70070000Y-18000000D01*
X72549838Y-13509983D02*
X70560017Y-13509983D01*
X70560017Y-13509983D02*
X70070000Y-14000000D01*
D17*
%TO.N,*%
X74570000Y-27520059D02*
X74070000Y-27520059D01*
X74070000Y-27520059D02*
X74029924Y-27479983D01*
D14*
%TO.N,Net-(D1-ESP-)*%
X64570000Y-13500000D02*
X59570000Y-18500000D01*
D17*
X60070000Y-39500000D02*
X60070000Y-28000000D01*
D14*
X72549838Y-28749983D02*
X65820017Y-28749983D01*
D17*
%TO.N,*%
X72549838Y-23669983D02*
X74349838Y-23669983D01*
%TO.N,Net-(D1-ESP-)*%
X61465106Y-25895106D02*
X61465106Y-39500000D01*
D14*
X59354838Y-12715162D02*
X56800230Y-15269770D01*
D17*
X58277350Y-16292650D02*
X62070000Y-12500000D01*
D15*
X58699081Y-29129081D02*
X58699081Y-39500000D01*
D16*
X65820017Y-28749983D02*
X65807008Y-28762992D01*
D17*
X58277350Y-26207350D02*
X58277350Y-16292650D01*
%TO.N,*%
X72549838Y-24939983D02*
X74579838Y-24939983D01*
D14*
X74799838Y-23219983D02*
X74799838Y-9719983D01*
%TO.N,Net-(D1-ESP-)*%
X56800230Y-27230230D02*
X58570000Y-29000000D01*
D17*
X59570000Y-18500000D02*
X59570000Y-24000000D01*
X69070000Y-13500000D02*
X64570000Y-13500000D01*
D20*
X70330017Y-12239983D02*
X69070000Y-13500000D01*
D14*
X64182756Y-28762992D02*
X64182756Y-39387244D01*
X65807008Y-28762992D02*
X64182756Y-28762992D01*
D20*
X68070000Y-12500000D02*
X64419676Y-12500000D01*
X68244838Y-12325162D02*
X68070000Y-12500000D01*
D17*
X59570000Y-24000000D02*
X61465106Y-25895106D01*
D15*
X58570000Y-29000000D02*
X58699081Y-29129081D01*
D17*
X60070000Y-28000000D02*
X58277350Y-26207350D01*
X62070000Y-12500000D02*
X64419676Y-12500000D01*
%TO.N,*%
X74349838Y-23669983D02*
X74799838Y-23219983D01*
D14*
%TO.N,Net-(D1-ESP-)*%
X68244838Y-10989983D02*
X68244838Y-12325162D01*
D20*
X72549838Y-12239983D02*
X70330017Y-12239983D01*
D14*
X56800230Y-15269770D02*
X56800230Y-27230230D01*
D15*
X59354838Y-10989983D02*
X59354838Y-12715162D01*
%TD*%
M02*
